<?xml version="1.0" encoding="UTF-8"?>
<!DOCTYPE svg PUBLIC "-//W3C//DTD SVG 1.1//EN"
"http://www.w3.org/Graphics/SVG/1.1/DTD/svg11.dtd">

<svg xmlns="http://www.w3.org/2000/svg"
     xmlns:xlink="http://www.w3.org/1999/xlink"
xmlns:ev="http://www.w3.org/2001/xml-events"
     version="1.1" baseProfile="full"
     width="85mm" height="54mm">

<polygon points="-75,6 10,185 50,185 -40,6" style="fill:orange" />
<polygon points="10,6 90,185 130,185 50,6" style="fill:orange" />
<polygon points="90,6 170,185 210,185 130,6" style="fill:orange" />
<polygon points="170,6 250,185 290,185 210,6" style="fill:orange" />
<polygon points="250,6 330,185 370,185 290,6" style="fill:orange" />

<!--Copy code from svg file without "svg:" -->
<rect height="1mm" width="1mm" x="4mm" y="4mm" /><rect height="1mm" width="1mm" x="5mm" y="4mm" /><rect height="1mm" width="1mm" x="6mm" y="4mm" /><rect height="1mm" width="1mm" x="7mm" y="4mm" /><rect height="1mm" width="1mm" x="8mm" y="4mm" /><rect height="1mm" width="1mm" x="9mm" y="4mm" /><rect height="1mm" width="1mm" x="10mm" y="4mm" /><rect height="1mm" width="1mm" x="12mm" y="4mm" /><rect height="1mm" width="1mm" x="15mm" y="4mm" /><rect height="1mm" width="1mm" x="16mm" y="4mm" /><rect height="1mm" width="1mm" x="18mm" y="4mm" /><rect height="1mm" width="1mm" x="22mm" y="4mm" /><rect height="1mm" width="1mm" x="23mm" y="4mm" /><rect height="1mm" width="1mm" x="24mm" y="4mm" /><rect height="1mm" width="1mm" x="25mm" y="4mm" /><rect height="1mm" width="1mm" x="26mm" y="4mm" /><rect height="1mm" width="1mm" x="27mm" y="4mm" /><rect height="1mm" width="1mm" x="28mm" y="4mm" /><rect height="1mm" width="1mm" x="4mm" y="5mm" /><rect height="1mm" width="1mm" x="10mm" y="5mm" /><rect height="1mm" width="1mm" x="12mm" y="5mm" /><rect height="1mm" width="1mm" x="14mm" y="5mm" /><rect height="1mm" width="1mm" x="16mm" y="5mm" /><rect height="1mm" width="1mm" x="17mm" y="5mm" /><rect height="1mm" width="1mm" x="20mm" y="5mm" /><rect height="1mm" width="1mm" x="22mm" y="5mm" /><rect height="1mm" width="1mm" x="28mm" y="5mm" /><rect height="1mm" width="1mm" x="4mm" y="6mm" /><rect height="1mm" width="1mm" x="6mm" y="6mm" /><rect height="1mm" width="1mm" x="7mm" y="6mm" /><rect height="1mm" width="1mm" x="8mm" y="6mm" /><rect height="1mm" width="1mm" x="10mm" y="6mm" /><rect height="1mm" width="1mm" x="12mm" y="6mm" /><rect height="1mm" width="1mm" x="13mm" y="6mm" /><rect height="1mm" width="1mm" x="17mm" y="6mm" /><rect height="1mm" width="1mm" x="18mm" y="6mm" /><rect height="1mm" width="1mm" x="19mm" y="6mm" /><rect height="1mm" width="1mm" x="20mm" y="6mm" /><rect height="1mm" width="1mm" x="22mm" y="6mm" /><rect height="1mm" width="1mm" x="24mm" y="6mm" /><rect height="1mm" width="1mm" x="25mm" y="6mm" /><rect height="1mm" width="1mm" x="26mm" y="6mm" /><rect height="1mm" width="1mm" x="28mm" y="6mm" /><rect height="1mm" width="1mm" x="4mm" y="7mm" /><rect height="1mm" width="1mm" x="6mm" y="7mm" /><rect height="1mm" width="1mm" x="7mm" y="7mm" /><rect height="1mm" width="1mm" x="8mm" y="7mm" /><rect height="1mm" width="1mm" x="10mm" y="7mm" /><rect height="1mm" width="1mm" x="16mm" y="7mm" /><rect height="1mm" width="1mm" x="17mm" y="7mm" /><rect height="1mm" width="1mm" x="19mm" y="7mm" /><rect height="1mm" width="1mm" x="20mm" y="7mm" /><rect height="1mm" width="1mm" x="22mm" y="7mm" /><rect height="1mm" width="1mm" x="24mm" y="7mm" /><rect height="1mm" width="1mm" x="25mm" y="7mm" /><rect height="1mm" width="1mm" x="26mm" y="7mm" /><rect height="1mm" width="1mm" x="28mm" y="7mm" /><rect height="1mm" width="1mm" x="4mm" y="8mm" /><rect height="1mm" width="1mm" x="6mm" y="8mm" /><rect height="1mm" width="1mm" x="7mm" y="8mm" /><rect height="1mm" width="1mm" x="8mm" y="8mm" /><rect height="1mm" width="1mm" x="10mm" y="8mm" /><rect height="1mm" width="1mm" x="12mm" y="8mm" /><rect height="1mm" width="1mm" x="13mm" y="8mm" /><rect height="1mm" width="1mm" x="14mm" y="8mm" /><rect height="1mm" width="1mm" x="16mm" y="8mm" /><rect height="1mm" width="1mm" x="17mm" y="8mm" /><rect height="1mm" width="1mm" x="18mm" y="8mm" /><rect height="1mm" width="1mm" x="20mm" y="8mm" /><rect height="1mm" width="1mm" x="22mm" y="8mm" /><rect height="1mm" width="1mm" x="24mm" y="8mm" /><rect height="1mm" width="1mm" x="25mm" y="8mm" /><rect height="1mm" width="1mm" x="26mm" y="8mm" /><rect height="1mm" width="1mm" x="28mm" y="8mm" /><rect height="1mm" width="1mm" x="4mm" y="9mm" /><rect height="1mm" width="1mm" x="10mm" y="9mm" /><rect height="1mm" width="1mm" x="16mm" y="9mm" /><rect height="1mm" width="1mm" x="17mm" y="9mm" /><rect height="1mm" width="1mm" x="18mm" y="9mm" /><rect height="1mm" width="1mm" x="22mm" y="9mm" /><rect height="1mm" width="1mm" x="28mm" y="9mm" /><rect height="1mm" width="1mm" x="4mm" y="10mm" /><rect height="1mm" width="1mm" x="5mm" y="10mm" /><rect height="1mm" width="1mm" x="6mm" y="10mm" /><rect height="1mm" width="1mm" x="7mm" y="10mm" /><rect height="1mm" width="1mm" x="8mm" y="10mm" /><rect height="1mm" width="1mm" x="9mm" y="10mm" /><rect height="1mm" width="1mm" x="10mm" y="10mm" /><rect height="1mm" width="1mm" x="12mm" y="10mm" /><rect height="1mm" width="1mm" x="14mm" y="10mm" /><rect height="1mm" width="1mm" x="16mm" y="10mm" /><rect height="1mm" width="1mm" x="18mm" y="10mm" /><rect height="1mm" width="1mm" x="20mm" y="10mm" /><rect height="1mm" width="1mm" x="22mm" y="10mm" /><rect height="1mm" width="1mm" x="23mm" y="10mm" /><rect height="1mm" width="1mm" x="24mm" y="10mm" /><rect height="1mm" width="1mm" x="25mm" y="10mm" /><rect height="1mm" width="1mm" x="26mm" y="10mm" /><rect height="1mm" width="1mm" x="27mm" y="10mm" /><rect height="1mm" width="1mm" x="28mm" y="10mm" /><rect height="1mm" width="1mm" x="15mm" y="11mm" /><rect height="1mm" width="1mm" x="17mm" y="11mm" /><rect height="1mm" width="1mm" x="4mm" y="12mm" /><rect height="1mm" width="1mm" x="7mm" y="12mm" /><rect height="1mm" width="1mm" x="8mm" y="12mm" /><rect height="1mm" width="1mm" x="9mm" y="12mm" /><rect height="1mm" width="1mm" x="10mm" y="12mm" /><rect height="1mm" width="1mm" x="11mm" y="12mm" /><rect height="1mm" width="1mm" x="12mm" y="12mm" /><rect height="1mm" width="1mm" x="13mm" y="12mm" /><rect height="1mm" width="1mm" x="16mm" y="12mm" /><rect height="1mm" width="1mm" x="17mm" y="12mm" /><rect height="1mm" width="1mm" x="19mm" y="12mm" /><rect height="1mm" width="1mm" x="20mm" y="12mm" /><rect height="1mm" width="1mm" x="21mm" y="12mm" /><rect height="1mm" width="1mm" x="24mm" y="12mm" /><rect height="1mm" width="1mm" x="26mm" y="12mm" /><rect height="1mm" width="1mm" x="27mm" y="12mm" /><rect height="1mm" width="1mm" x="28mm" y="12mm" /><rect height="1mm" width="1mm" x="4mm" y="13mm" /><rect height="1mm" width="1mm" x="7mm" y="13mm" /><rect height="1mm" width="1mm" x="9mm" y="13mm" /><rect height="1mm" width="1mm" x="12mm" y="13mm" /><rect height="1mm" width="1mm" x="14mm" y="13mm" /><rect height="1mm" width="1mm" x="17mm" y="13mm" /><rect height="1mm" width="1mm" x="18mm" y="13mm" /><rect height="1mm" width="1mm" x="23mm" y="13mm" /><rect height="1mm" width="1mm" x="24mm" y="13mm" /><rect height="1mm" width="1mm" x="26mm" y="13mm" /><rect height="1mm" width="1mm" x="28mm" y="13mm" /><rect height="1mm" width="1mm" x="5mm" y="14mm" /><rect height="1mm" width="1mm" x="6mm" y="14mm" /><rect height="1mm" width="1mm" x="7mm" y="14mm" /><rect height="1mm" width="1mm" x="9mm" y="14mm" /><rect height="1mm" width="1mm" x="10mm" y="14mm" /><rect height="1mm" width="1mm" x="11mm" y="14mm" /><rect height="1mm" width="1mm" x="12mm" y="14mm" /><rect height="1mm" width="1mm" x="16mm" y="14mm" /><rect height="1mm" width="1mm" x="17mm" y="14mm" /><rect height="1mm" width="1mm" x="19mm" y="14mm" /><rect height="1mm" width="1mm" x="20mm" y="14mm" /><rect height="1mm" width="1mm" x="22mm" y="14mm" /><rect height="1mm" width="1mm" x="23mm" y="14mm" /><rect height="1mm" width="1mm" x="24mm" y="14mm" /><rect height="1mm" width="1mm" x="4mm" y="15mm" /><rect height="1mm" width="1mm" x="7mm" y="15mm" /><rect height="1mm" width="1mm" x="8mm" y="15mm" /><rect height="1mm" width="1mm" x="11mm" y="15mm" /><rect height="1mm" width="1mm" x="13mm" y="15mm" /><rect height="1mm" width="1mm" x="14mm" y="15mm" /><rect height="1mm" width="1mm" x="17mm" y="15mm" /><rect height="1mm" width="1mm" x="21mm" y="15mm" /><rect height="1mm" width="1mm" x="23mm" y="15mm" /><rect height="1mm" width="1mm" x="26mm" y="15mm" /><rect height="1mm" width="1mm" x="27mm" y="15mm" /><rect height="1mm" width="1mm" x="28mm" y="15mm" /><rect height="1mm" width="1mm" x="7mm" y="16mm" /><rect height="1mm" width="1mm" x="10mm" y="16mm" /><rect height="1mm" width="1mm" x="11mm" y="16mm" /><rect height="1mm" width="1mm" x="12mm" y="16mm" /><rect height="1mm" width="1mm" x="15mm" y="16mm" /><rect height="1mm" width="1mm" x="16mm" y="16mm" /><rect height="1mm" width="1mm" x="17mm" y="16mm" /><rect height="1mm" width="1mm" x="20mm" y="16mm" /><rect height="1mm" width="1mm" x="22mm" y="16mm" /><rect height="1mm" width="1mm" x="23mm" y="16mm" /><rect height="1mm" width="1mm" x="25mm" y="16mm" /><rect height="1mm" width="1mm" x="4mm" y="17mm" /><rect height="1mm" width="1mm" x="5mm" y="17mm" /><rect height="1mm" width="1mm" x="8mm" y="17mm" /><rect height="1mm" width="1mm" x="9mm" y="17mm" /><rect height="1mm" width="1mm" x="14mm" y="17mm" /><rect height="1mm" width="1mm" x="17mm" y="17mm" /><rect height="1mm" width="1mm" x="18mm" y="17mm" /><rect height="1mm" width="1mm" x="19mm" y="17mm" /><rect height="1mm" width="1mm" x="24mm" y="17mm" /><rect height="1mm" width="1mm" x="26mm" y="17mm" /><rect height="1mm" width="1mm" x="27mm" y="17mm" /><rect height="1mm" width="1mm" x="28mm" y="17mm" /><rect height="1mm" width="1mm" x="4mm" y="18mm" /><rect height="1mm" width="1mm" x="5mm" y="18mm" /><rect height="1mm" width="1mm" x="6mm" y="18mm" /><rect height="1mm" width="1mm" x="9mm" y="18mm" /><rect height="1mm" width="1mm" x="10mm" y="18mm" /><rect height="1mm" width="1mm" x="11mm" y="18mm" /><rect height="1mm" width="1mm" x="12mm" y="18mm" /><rect height="1mm" width="1mm" x="14mm" y="18mm" /><rect height="1mm" width="1mm" x="15mm" y="18mm" /><rect height="1mm" width="1mm" x="16mm" y="18mm" /><rect height="1mm" width="1mm" x="17mm" y="18mm" /><rect height="1mm" width="1mm" x="19mm" y="18mm" /><rect height="1mm" width="1mm" x="21mm" y="18mm" /><rect height="1mm" width="1mm" x="22mm" y="18mm" /><rect height="1mm" width="1mm" x="23mm" y="18mm" /><rect height="1mm" width="1mm" x="4mm" y="19mm" /><rect height="1mm" width="1mm" x="8mm" y="19mm" /><rect height="1mm" width="1mm" x="9mm" y="19mm" /><rect height="1mm" width="1mm" x="11mm" y="19mm" /><rect height="1mm" width="1mm" x="12mm" y="19mm" /><rect height="1mm" width="1mm" x="13mm" y="19mm" /><rect height="1mm" width="1mm" x="14mm" y="19mm" /><rect height="1mm" width="1mm" x="15mm" y="19mm" /><rect height="1mm" width="1mm" x="19mm" y="19mm" /><rect height="1mm" width="1mm" x="20mm" y="19mm" /><rect height="1mm" width="1mm" x="23mm" y="19mm" /><rect height="1mm" width="1mm" x="25mm" y="19mm" /><rect height="1mm" width="1mm" x="26mm" y="19mm" /><rect height="1mm" width="1mm" x="28mm" y="19mm" /><rect height="1mm" width="1mm" x="4mm" y="20mm" /><rect height="1mm" width="1mm" x="6mm" y="20mm" /><rect height="1mm" width="1mm" x="8mm" y="20mm" /><rect height="1mm" width="1mm" x="10mm" y="20mm" /><rect height="1mm" width="1mm" x="13mm" y="20mm" /><rect height="1mm" width="1mm" x="18mm" y="20mm" /><rect height="1mm" width="1mm" x="19mm" y="20mm" /><rect height="1mm" width="1mm" x="20mm" y="20mm" /><rect height="1mm" width="1mm" x="21mm" y="20mm" /><rect height="1mm" width="1mm" x="22mm" y="20mm" /><rect height="1mm" width="1mm" x="23mm" y="20mm" /><rect height="1mm" width="1mm" x="24mm" y="20mm" /><rect height="1mm" width="1mm" x="25mm" y="20mm" /><rect height="1mm" width="1mm" x="26mm" y="20mm" /><rect height="1mm" width="1mm" x="27mm" y="20mm" /><rect height="1mm" width="1mm" x="28mm" y="20mm" /><rect height="1mm" width="1mm" x="12mm" y="21mm" /><rect height="1mm" width="1mm" x="14mm" y="21mm" /><rect height="1mm" width="1mm" x="15mm" y="21mm" /><rect height="1mm" width="1mm" x="16mm" y="21mm" /><rect height="1mm" width="1mm" x="17mm" y="21mm" /><rect height="1mm" width="1mm" x="18mm" y="21mm" /><rect height="1mm" width="1mm" x="19mm" y="21mm" /><rect height="1mm" width="1mm" x="20mm" y="21mm" /><rect height="1mm" width="1mm" x="24mm" y="21mm" /><rect height="1mm" width="1mm" x="25mm" y="21mm" /><rect height="1mm" width="1mm" x="26mm" y="21mm" /><rect height="1mm" width="1mm" x="27mm" y="21mm" /><rect height="1mm" width="1mm" x="28mm" y="21mm" /><rect height="1mm" width="1mm" x="4mm" y="22mm" /><rect height="1mm" width="1mm" x="5mm" y="22mm" /><rect height="1mm" width="1mm" x="6mm" y="22mm" /><rect height="1mm" width="1mm" x="7mm" y="22mm" /><rect height="1mm" width="1mm" x="8mm" y="22mm" /><rect height="1mm" width="1mm" x="9mm" y="22mm" /><rect height="1mm" width="1mm" x="10mm" y="22mm" /><rect height="1mm" width="1mm" x="12mm" y="22mm" /><rect height="1mm" width="1mm" x="13mm" y="22mm" /><rect height="1mm" width="1mm" x="14mm" y="22mm" /><rect height="1mm" width="1mm" x="15mm" y="22mm" /><rect height="1mm" width="1mm" x="20mm" y="22mm" /><rect height="1mm" width="1mm" x="22mm" y="22mm" /><rect height="1mm" width="1mm" x="24mm" y="22mm" /><rect height="1mm" width="1mm" x="25mm" y="22mm" /><rect height="1mm" width="1mm" x="26mm" y="22mm" /><rect height="1mm" width="1mm" x="27mm" y="22mm" /><rect height="1mm" width="1mm" x="4mm" y="23mm" /><rect height="1mm" width="1mm" x="10mm" y="23mm" /><rect height="1mm" width="1mm" x="12mm" y="23mm" /><rect height="1mm" width="1mm" x="14mm" y="23mm" /><rect height="1mm" width="1mm" x="16mm" y="23mm" /><rect height="1mm" width="1mm" x="18mm" y="23mm" /><rect height="1mm" width="1mm" x="19mm" y="23mm" /><rect height="1mm" width="1mm" x="20mm" y="23mm" /><rect height="1mm" width="1mm" x="24mm" y="23mm" /><rect height="1mm" width="1mm" x="4mm" y="24mm" /><rect height="1mm" width="1mm" x="6mm" y="24mm" /><rect height="1mm" width="1mm" x="7mm" y="24mm" /><rect height="1mm" width="1mm" x="8mm" y="24mm" /><rect height="1mm" width="1mm" x="10mm" y="24mm" /><rect height="1mm" width="1mm" x="12mm" y="24mm" /><rect height="1mm" width="1mm" x="14mm" y="24mm" /><rect height="1mm" width="1mm" x="16mm" y="24mm" /><rect height="1mm" width="1mm" x="17mm" y="24mm" /><rect height="1mm" width="1mm" x="18mm" y="24mm" /><rect height="1mm" width="1mm" x="19mm" y="24mm" /><rect height="1mm" width="1mm" x="20mm" y="24mm" /><rect height="1mm" width="1mm" x="21mm" y="24mm" /><rect height="1mm" width="1mm" x="22mm" y="24mm" /><rect height="1mm" width="1mm" x="23mm" y="24mm" /><rect height="1mm" width="1mm" x="24mm" y="24mm" /><rect height="1mm" width="1mm" x="25mm" y="24mm" /><rect height="1mm" width="1mm" x="26mm" y="24mm" /><rect height="1mm" width="1mm" x="28mm" y="24mm" /><rect height="1mm" width="1mm" x="4mm" y="25mm" /><rect height="1mm" width="1mm" x="6mm" y="25mm" /><rect height="1mm" width="1mm" x="7mm" y="25mm" /><rect height="1mm" width="1mm" x="8mm" y="25mm" /><rect height="1mm" width="1mm" x="10mm" y="25mm" /><rect height="1mm" width="1mm" x="12mm" y="25mm" /><rect height="1mm" width="1mm" x="13mm" y="25mm" /><rect height="1mm" width="1mm" x="18mm" y="25mm" /><rect height="1mm" width="1mm" x="21mm" y="25mm" /><rect height="1mm" width="1mm" x="22mm" y="25mm" /><rect height="1mm" width="1mm" x="24mm" y="25mm" /><rect height="1mm" width="1mm" x="25mm" y="25mm" /><rect height="1mm" width="1mm" x="28mm" y="25mm" /><rect height="1mm" width="1mm" x="4mm" y="26mm" /><rect height="1mm" width="1mm" x="6mm" y="26mm" /><rect height="1mm" width="1mm" x="7mm" y="26mm" /><rect height="1mm" width="1mm" x="8mm" y="26mm" /><rect height="1mm" width="1mm" x="10mm" y="26mm" /><rect height="1mm" width="1mm" x="13mm" y="26mm" /><rect height="1mm" width="1mm" x="16mm" y="26mm" /><rect height="1mm" width="1mm" x="18mm" y="26mm" /><rect height="1mm" width="1mm" x="19mm" y="26mm" /><rect height="1mm" width="1mm" x="21mm" y="26mm" /><rect height="1mm" width="1mm" x="23mm" y="26mm" /><rect height="1mm" width="1mm" x="24mm" y="26mm" /><rect height="1mm" width="1mm" x="27mm" y="26mm" /><rect height="1mm" width="1mm" x="28mm" y="26mm" /><rect height="1mm" width="1mm" x="4mm" y="27mm" /><rect height="1mm" width="1mm" x="10mm" y="27mm" /><rect height="1mm" width="1mm" x="13mm" y="27mm" /><rect height="1mm" width="1mm" x="14mm" y="27mm" /><rect height="1mm" width="1mm" x="18mm" y="27mm" /><rect height="1mm" width="1mm" x="19mm" y="27mm" /><rect height="1mm" width="1mm" x="22mm" y="27mm" /><rect height="1mm" width="1mm" x="23mm" y="27mm" /><rect height="1mm" width="1mm" x="26mm" y="27mm" /><rect height="1mm" width="1mm" x="28mm" y="27mm" /><rect height="1mm" width="1mm" x="4mm" y="28mm" /><rect height="1mm" width="1mm" x="5mm" y="28mm" /><rect height="1mm" width="1mm" x="6mm" y="28mm" /><rect height="1mm" width="1mm" x="7mm" y="28mm" /><rect height="1mm" width="1mm" x="8mm" y="28mm" /><rect height="1mm" width="1mm" x="9mm" y="28mm" /><rect height="1mm" width="1mm" x="10mm" y="28mm" /><rect height="1mm" width="1mm" x="12mm" y="28mm" /><rect height="1mm" width="1mm" x="13mm" y="28mm" /><rect height="1mm" width="1mm" x="14mm" y="28mm" /><rect height="1mm" width="1mm" x="17mm" y="28mm" /><rect height="1mm" width="1mm" x="18mm" y="28mm" /><rect height="1mm" width="1mm" x="20mm" y="28mm" /><rect height="1mm" width="1mm" x="22mm" y="28mm" /><rect height="1mm" width="1mm" x="25mm" y="28mm" /><rect height="1mm" width="1mm" x="27mm" y="28mm" /><rect height="1mm" width="1mm" x="28mm" y="28mm" />

<text x="140" y="30" fill="black" style="font-size:20px">NoVolume</text>
<text x="140" y="50" fill="black" style="font-size:16px">Hackerspace WHV</text>
<!--Insert name and ID-->
<text x="140" y="80" fill="black" style="font-size:18px">Aimo</text>
<text x="140" y="100" fill="black" style="font-size:18px">Leffers</text>
<text x="140" y="130" fill="black" style="font-size:16px">0098162996</text>

<text x="60" y="165" fill="black" style="font-size:16px">http://www.novolulme.de</text>


</svg>
